<svg width="100" height="100" viewBox="0 0 100 100" fill="none" xmlns="http://www.w3.org/2000/svg">
<g clip-path="url(#clip0_2746_3)">
<path d="M81.3925 81.3924C77.282 85.503 79.4277 89.3436 74.3933 92.2503C69.3589 95.1569 67.1056 91.3783 61.4905 92.8829C55.8753 94.3875 55.8133 98.7864 50 98.7864C44.1868 98.7864 44.1247 94.3875 38.5096 92.8829C32.8944 91.3783 30.6412 95.1569 25.6068 92.2503C20.5724 89.3436 22.7181 85.503 18.6075 81.3924C14.4969 77.2818 10.6563 79.4276 7.74966 74.3932C4.84304 69.3587 8.62161 67.1055 7.11703 61.4904C5.61246 55.8752 1.2135 55.8131 1.2135 49.9999C1.2135 44.1867 5.61246 44.1246 7.11703 38.5094C8.62161 32.8943 4.84304 30.641 7.74965 25.6066C10.6563 20.5722 14.4969 22.7179 18.6075 18.6074C22.7181 14.4968 20.5723 10.6562 25.6068 7.74954C30.6412 4.84292 32.8944 8.62149 38.5096 7.11691C44.1247 5.61234 44.1868 1.21338 50 1.21338C55.8132 1.21338 55.8753 5.61234 61.4905 7.11691C67.1056 8.62149 69.3589 4.84291 74.3933 7.74953C79.4277 10.6561 77.282 14.4968 81.3925 18.6074C85.5031 22.7179 89.3438 20.5722 92.2504 25.6066C95.157 30.641 91.3784 32.8943 92.883 38.5094C94.3876 44.1246 98.7865 44.1867 98.7865 49.9999C98.7865 55.8131 94.3876 55.8752 92.883 61.4904C91.3784 67.1055 95.157 69.3587 92.2504 74.3931C89.3438 79.4276 85.5031 77.2818 81.3925 81.3924Z" stroke="#AD9ACA" stroke-width="2"/>
<path d="M65.4434 65.4434C63.4212 67.4656 64.4768 69.3549 62.0002 70.7848C59.5235 72.2147 58.4151 70.3559 55.6527 71.096C52.8904 71.8362 52.8599 74.0002 50.0001 74.0002C47.1403 74.0002 47.1098 71.8362 44.3475 71.096C41.5852 70.3559 40.4767 72.2147 38.0001 70.7848C35.5234 69.3549 36.579 67.4656 34.5568 65.4434C32.5347 63.4212 30.6453 64.4768 29.2154 62.0002C27.7855 59.5235 29.6444 58.4151 28.9042 55.6527C28.164 52.8904 26 52.8599 26 50.0001C26 47.1403 28.164 47.1098 28.9042 44.3475C29.6444 41.5852 27.7855 40.4767 29.2154 38.0001C30.6453 35.5234 32.5347 36.579 34.5568 34.5568C36.579 32.5347 35.5234 30.6453 38.0001 29.2154C40.4767 27.7855 41.5852 29.6444 44.3475 28.9042C47.1098 28.164 47.1403 26 50.0001 26C52.8599 26 52.8904 28.164 55.6527 28.9042C58.4151 29.6444 59.5235 27.7855 62.0002 29.2154C64.4768 30.6453 63.4212 32.5347 65.4434 34.5568C67.4656 36.579 69.3549 35.5234 70.7848 38.0001C72.2147 40.4767 70.3559 41.5852 71.096 44.3475C71.8362 47.1098 74.0002 47.1403 74.0002 50.0001C74.0002 52.8599 71.8362 52.8904 71.096 55.6527C70.3559 58.4151 72.2147 59.5235 70.7848 62.0002C69.3549 64.4768 67.4656 63.4212 65.4434 65.4434Z" stroke="#AD9ACA"/>
<g clip-path="url(#clip1_2746_3)">
<path d="M50 62.423V38.5765M50 62.423C50 62.423 50.9936 60.1046 54.3057 56.7926C57.6177 53.4806 59.9361 52.487 59.9361 52.487M50 62.423C50 62.423 49.0065 60.1045 45.6945 56.7925C42.3825 53.4805 40.064 52.487 40.064 52.487" stroke="#AD9ACA" stroke-width="1.5" stroke-linecap="square" stroke-linejoin="round"/>
</g>
<path d="M53.2363 79.7932C53.8527 79.7289 54.4518 79.7598 55.0335 79.886C55.6161 80.0199 56.0848 80.2202 56.4398 80.4869L56.1063 81.433C55.77 81.1955 55.3537 81.0131 54.8575 80.8857C54.3613 80.7584 53.8551 80.7217 53.3389 80.7756C52.8689 80.8246 52.4932 80.9184 52.2116 81.0568C51.9301 81.1953 51.7297 81.3642 51.6103 81.5636C51.4917 81.7707 51.4449 81.9936 51.4698 82.2325C51.4988 82.5098 51.6146 82.7236 51.8172 82.8738C52.0121 83.0248 52.2612 83.1351 52.5644 83.2047C52.8608 83.2828 53.1863 83.3423 53.541 83.3831C53.8958 83.424 54.2556 83.476 54.6205 83.5391C54.9785 83.6108 55.3123 83.7123 55.622 83.8435C55.9239 83.9755 56.1776 84.1671 56.3829 84.4183C56.5891 84.6771 56.7147 85.0223 56.7598 85.4538C56.8032 85.8698 56.7352 86.2625 56.5556 86.6317C56.3692 87.0094 56.0596 87.3261 55.6267 87.5816C55.1869 87.8456 54.6126 88.0145 53.9038 88.0885C53.4338 88.1376 52.9613 88.1246 52.4861 88.0496C52.011 87.9746 51.5918 87.8393 51.2287 87.6435L51.5135 86.6791C51.8844 86.8741 52.2676 87.0015 52.6633 87.0614C53.0598 87.1291 53.4391 87.144 53.8012 87.1062C54.2558 87.0587 54.6235 86.9619 54.9042 86.8158C55.1849 86.6697 55.3845 86.4931 55.5031 86.286C55.614 86.0797 55.6569 85.8571 55.632 85.6182C55.6022 85.3332 55.4899 85.1151 55.295 84.9641C55.0924 84.8139 54.8433 84.7036 54.5478 84.6332C54.2446 84.5637 53.9152 84.5046 53.5596 84.456C53.2048 84.4152 52.8489 84.3628 52.4917 84.2988C52.1268 84.2357 51.7934 84.1381 51.4915 84.006C51.1818 83.8748 50.9243 83.6836 50.7189 83.4325C50.5135 83.1813 50.3887 82.8438 50.3445 82.4201C50.3019 82.0117 50.3738 81.6187 50.5602 81.2409C50.7474 80.8709 51.0648 80.5535 51.5123 80.2887C51.9528 80.0324 52.5275 79.8672 53.2363 79.7932ZM45.6239 79.6359C46.2388 79.7128 46.7951 79.8839 47.2928 80.1492C47.7818 80.4212 48.1954 80.7657 48.5336 81.1827C48.8631 81.6065 49.1042 82.0817 49.2569 82.6082C49.4096 83.1348 49.4484 83.6979 49.3734 84.2974C49.2984 84.897 49.122 85.4331 48.8442 85.9058C48.5665 86.3785 48.2124 86.7753 47.7819 87.0961C47.3504 87.4247 46.8647 87.6567 46.3247 87.7921C45.776 87.9342 45.1942 87.9668 44.5793 87.8899C43.9567 87.8119 43.3975 87.6327 42.9017 87.352C42.3973 87.0781 41.9866 86.7105 41.6696 86.2493L42.5099 85.6167C42.777 85.978 43.0931 86.2596 43.4582 86.4614C43.8223 86.6709 44.2234 86.8031 44.6616 86.8579C45.1151 86.9147 45.5475 86.8907 45.9587 86.786C46.3623 86.6804 46.7236 86.507 47.0426 86.2659C47.3617 86.0248 47.6259 85.7221 47.8354 85.358C48.0363 85.0006 48.1646 84.599 48.2204 84.1532C48.2762 83.7073 48.2513 83.2827 48.1456 82.8791C48.0314 82.4822 47.8493 82.1277 47.5996 81.8154C47.3498 81.503 47.0423 81.2459 46.6772 81.0441C46.3045 80.8413 45.8913 80.7116 45.4378 80.6548C44.9997 80.6 44.5788 80.6254 44.1752 80.731C43.7707 80.8444 43.394 81.0471 43.0452 81.3391L42.3867 80.5189C42.8076 80.15 43.2967 79.8911 43.854 79.7423C44.4036 79.5925 44.9936 79.557 45.6239 79.6359ZM41.8307 79.06L38.864 86.6335L35.9103 85.4765C34.9294 85.0923 34.2494 84.5555 33.8705 83.8663C33.4887 83.1843 33.4602 82.4285 33.7852 81.5991C33.9999 81.0509 34.3112 80.6279 34.7191 80.3301C35.1241 80.0395 35.602 79.8814 36.1528 79.8559C36.7035 79.8303 37.3107 79.9476 37.9743 80.2075L40.3329 81.1314L39.6511 81.4384L40.7488 78.6362L41.8307 79.06ZM36.7673 77.0765L37.6166 80.579L36.4589 80.1256L35.588 76.6146L36.7673 77.0765ZM39.6935 81.3302L39.9727 82.0511L37.6465 81.1399C36.9541 80.8686 36.3732 80.8116 35.904 80.9689C35.4246 81.1306 35.079 81.4819 34.8671 82.0229C34.6552 82.5638 34.6717 83.0528 34.9165 83.4898C35.1541 83.924 35.6191 84.2767 36.3115 84.548L38.6377 85.4592L37.9389 85.8094L39.6935 81.3302ZM31.8794 73.8555C32.3741 74.2289 32.7717 74.6601 33.0723 75.149C33.3667 75.6333 33.5565 76.1405 33.6416 76.6706C33.7221 77.207 33.6972 77.7414 33.567 78.274C33.4368 78.8065 33.192 79.3109 32.8326 79.7869C32.4733 80.263 32.0554 80.6367 31.5789 80.9079C31.1024 81.1791 30.5976 81.3464 30.0644 81.4099C29.5266 81.4795 28.9845 81.4391 28.438 81.2887C27.8916 81.1383 27.368 80.8741 26.8671 80.496C26.3725 80.1227 25.9811 79.6962 25.6928 79.2166C25.3937 78.7384 25.2039 78.2312 25.1235 77.6949C25.0322 77.1601 25.0547 76.6288 25.1911 76.1009C25.3213 75.5683 25.5685 75.0609 25.9325 74.5786C26.2965 74.0964 26.7168 73.7196 27.1932 73.4484C27.6635 73.1725 28.1707 73.0021 28.7147 72.9372C29.2478 72.8737 29.7876 72.9172 30.3341 73.0676C30.8697 73.2196 31.3848 73.4822 31.8794 73.8555ZM31.2564 74.681C30.8978 74.4103 30.5203 74.2224 30.124 74.1174C29.7215 74.0077 29.325 73.9802 28.9344 74.0347C28.533 74.0908 28.1561 74.2237 27.8037 74.4333C27.4452 74.6383 27.1306 74.9201 26.8599 75.2787C26.5892 75.6373 26.4045 76.0171 26.3056 76.418C26.2006 76.8143 26.1785 77.2101 26.2392 77.6054C26.2891 78.0022 26.422 78.3791 26.6378 78.7361C26.8474 79.0884 27.1316 79.3999 27.4902 79.6706C27.855 79.9459 28.2386 80.1385 28.6411 80.2482C29.0374 80.3532 29.4363 80.3776 29.8377 80.3216C30.2345 80.2716 30.6121 80.1442 30.9707 79.9393C31.323 79.7296 31.6345 79.4455 31.9052 79.0869C32.1759 78.7283 32.3637 78.3508 32.4688 77.9545C32.5676 77.5536 32.589 77.1524 32.5329 76.7509C32.4721 76.3556 32.3369 75.9818 32.1273 75.6295C31.9115 75.2725 31.6212 74.9563 31.2564 74.681ZM27.8584 70.4638L21.5159 75.5562L20.7884 74.6502L26.3426 70.1906L23.5854 66.7566L24.3737 66.1237L27.8584 70.4638ZM24.1797 65.6224L16.9501 69.3496L16.4176 68.3168L22.7487 65.0529L20.7307 61.1385L21.6293 60.6753L24.1797 65.6224ZM20.707 57.976L12.6708 59.2331L12.141 55.8464C12.0069 54.9892 12.0574 54.209 12.2924 53.5058C12.5262 52.7949 12.9172 52.2123 13.4656 51.758C14.0128 51.2961 14.6843 51.0029 15.4803 50.8784C16.2762 50.7538 17.0053 50.828 17.6674 51.1008C18.3283 51.3659 18.8786 51.8012 19.3183 52.4067C19.7568 53.0046 20.0431 53.7321 20.1773 54.5893L20.707 57.976ZM19.5286 56.9842L19.1892 54.8144C19.085 54.1486 18.869 53.5943 18.541 53.1517C18.2118 52.7014 17.8005 52.3776 17.307 52.1803C16.8059 51.9843 16.2568 51.933 15.6599 52.0264C15.0553 52.1209 14.5481 52.3375 14.1385 52.676C13.7288 53.0145 13.436 53.4484 13.2601 53.9778C13.0829 54.4994 13.0464 55.0932 13.1506 55.7591L13.49 57.9288L19.5286 56.9842ZM20.1673 45.6206C20.0852 46.2348 19.9051 46.793 19.627 47.2951C19.35 47.7895 19.0015 48.2041 18.5816 48.5388C18.1541 48.8724 17.6764 49.1134 17.1486 49.2617C16.6208 49.41 16.0613 49.4447 15.47 49.3657C14.8788 49.2867 14.348 49.1063 13.8777 48.8247C13.4073 48.543 13.0135 48.1856 12.6962 47.7524C12.3713 47.3182 12.14 46.8262 12.0025 46.2764C11.8649 45.7265 11.8377 45.1407 11.9208 44.5187C12.0029 43.9045 12.1819 43.3539 12.458 42.8672C12.7274 42.3717 13.0758 41.9572 13.5034 41.6236C13.9243 41.2812 14.3981 41.0397 14.9249 40.8991C15.4527 40.7508 16.0161 40.7166 16.615 40.7966C17.2139 40.8767 17.7485 41.0575 18.2189 41.3392C18.6903 41.6132 19.0879 41.9711 19.4119 42.413C19.7291 42.8462 19.9565 43.3377 20.0941 43.8875C20.225 44.4286 20.2494 45.0063 20.1673 45.6206ZM19.1422 45.4836C19.2017 45.0383 19.1799 44.6172 19.0766 44.2204C18.9743 43.816 18.8034 43.4571 18.5639 43.1438C18.3178 42.8217 18.0168 42.5588 17.6611 42.3549C17.3064 42.1434 16.9064 42.0079 16.4611 41.9484C16.0157 41.8889 15.5942 41.9146 15.1964 42.0256C14.7996 42.1289 14.4441 42.3041 14.1297 42.5513C13.8086 42.7898 13.5457 43.0907 13.3408 43.4541C13.137 43.8098 13.0053 44.2103 12.9458 44.6557C12.8853 45.1087 12.9062 45.5374 13.0084 45.9419C13.1117 46.3386 13.2865 46.698 13.5326 47.0201C13.7711 47.3411 14.0676 47.6074 14.4223 47.8189C14.7781 48.0227 15.1786 48.1544 15.6239 48.2139C16.0693 48.2734 16.4903 48.2515 16.8871 48.1482C17.2849 48.0372 17.6448 47.8587 17.9668 47.6126C18.2812 47.3654 18.5403 47.0639 18.7442 46.7082C18.949 46.3448 19.0817 45.9366 19.1422 45.4836ZM21.6105 38.8814L13.1342 37.5753L13.6821 36.5112L21.4995 37.7264L21.2229 38.2636L15.7354 32.5235L16.2248 31.5731L24.0581 32.7573L23.7921 33.2739L18.278 27.5854L18.7834 26.604L24.7702 32.745L24.2117 33.8297L16.9384 32.7509L17.082 32.4719L22.1797 37.7761L21.6105 38.8814ZM26.8004 30.065L21.2336 24.1345L21.9283 23.4824L30.4236 24.6719L30.0593 25.0138L25.4866 20.1424L26.3338 19.3471L31.9006 25.2776L31.2059 25.9297L22.7106 24.7403L23.0749 24.3983L27.6476 29.2698L26.8004 30.065ZM36.0471 17.0875C36.4086 16.9322 36.7714 16.9287 37.1355 17.0768C37.5017 17.22 37.7624 17.4724 37.9177 17.8338C38.073 18.1952 38.0773 18.5598 37.9306 18.9274C37.7859 19.2901 37.5328 19.5491 37.1714 19.7044C36.8099 19.8597 36.4461 19.8657 36.08 19.7225C35.7158 19.5743 35.456 19.3195 35.3008 18.9581C35.1455 18.5966 35.1402 18.2345 35.2849 17.8719C35.4281 17.5057 35.6822 17.2442 36.0471 17.0875ZM36.2173 17.4837C35.9636 17.5927 35.787 17.7756 35.6873 18.0324C35.5862 18.2858 35.5894 18.5376 35.6969 18.7879C35.806 19.0415 35.9872 19.2189 36.2405 19.3201C36.4973 19.4197 36.7509 19.4157 37.0011 19.3082C37.2513 19.2007 37.427 19.0203 37.5281 18.7669C37.6327 18.512 37.6305 18.2577 37.5215 18.004C37.414 17.7538 37.2336 17.5781 36.9802 17.477C36.7253 17.3725 36.471 17.3747 36.2173 17.4837ZM47.2175 19.6945C46.6005 19.753 46.0018 19.7163 45.4212 19.5846C44.84 19.4451 44.3732 19.2403 44.0208 18.9702L44.3633 18.0274C44.6974 18.2681 45.1119 18.4545 45.6068 18.5865C46.1018 18.7186 46.6076 18.7602 47.1243 18.7113C47.5947 18.6667 47.9714 18.5765 48.2542 18.4408C48.537 18.3051 48.7391 18.1381 48.8604 17.9399C48.9809 17.7339 49.0299 17.5114 49.0072 17.2723C48.9809 16.9947 48.8672 16.7798 48.6661 16.6277C48.4726 16.4748 48.2246 16.3621 47.922 16.2896C47.6265 16.2087 47.3015 16.1461 46.9472 16.1019C46.5928 16.0576 46.2335 16.0022 45.8693 15.9355C45.512 15.8604 45.1792 15.7558 44.8708 15.6216C44.5701 15.4867 44.3183 15.2926 44.1153 15.0395C43.9116 14.7787 43.7894 14.4323 43.7484 14.0005C43.709 13.584 43.7808 13.192 43.9639 12.8245C44.1539 12.4486 44.4666 12.135 44.9019 11.8836C45.3441 11.6239 45.92 11.4604 46.6295 11.3932C47.0999 11.3486 47.5724 11.3661 48.0468 11.4457C48.5212 11.5252 48.939 11.6646 49.3003 11.8638L49.0062 12.8255C48.6372 12.627 48.2552 12.4959 47.8601 12.4321C47.4643 12.3607 47.0851 12.3421 46.7227 12.3765C46.2676 12.4196 45.8991 12.5128 45.617 12.6563C45.3349 12.7997 45.1336 12.9744 45.013 13.1804C44.9002 13.3856 44.8551 13.6077 44.8777 13.8468C44.9048 14.1322 45.015 14.3513 45.2084 14.5041C45.4096 14.6563 45.6576 14.7689 45.9525 14.8422C46.255 14.9147 46.5838 14.9769 46.9389 15.0289C47.2932 15.0731 47.6487 15.1289 48.0052 15.1963C48.3695 15.263 48.7019 15.3637 49.0026 15.4987C49.311 15.6329 49.5667 15.8265 49.7696 16.0796C49.9726 16.3327 50.0942 16.6714 50.1343 17.0956C50.1731 17.5043 50.0974 17.8966 49.9073 18.2726C49.7166 18.6408 49.3962 18.9552 48.9462 19.2157C48.5032 19.4677 47.927 19.6273 47.2175 19.6945ZM54.8261 19.9246C54.212 19.8418 53.6573 19.6654 53.1622 19.3954C52.6758 19.1188 52.2655 18.7703 51.9313 18.3501C51.6058 17.9232 51.3693 17.4457 51.2216 16.9177C51.0739 16.3897 51.0404 15.8263 51.1212 15.2275C51.2019 14.6287 51.3834 14.0943 51.6656 13.6243C51.9478 13.1542 52.3057 12.7608 52.7393 12.4441C53.1738 12.1197 53.6618 11.8923 54.203 11.7621C54.753 11.6252 55.3351 11.5981 55.9493 11.6809C56.5711 11.7648 57.1286 11.9494 57.6216 12.2347C58.1234 12.5134 58.5306 12.8849 58.8432 13.3491L57.9969 13.9737C57.7333 13.6099 57.4199 13.3253 57.0567 13.12C56.6946 12.907 56.2948 12.771 55.8572 12.712C55.4042 12.651 54.9716 12.6708 54.5594 12.7716C54.1548 12.8734 53.7919 13.0433 53.4706 13.2814C53.1493 13.5194 52.8821 13.8195 52.6692 14.1817C52.4649 14.5371 52.3328 14.9375 52.2727 15.3828C52.2127 15.8281 52.2336 16.253 52.3354 16.6575C52.4459 17.0554 52.6245 17.4117 52.8713 17.7264C53.1181 18.0411 53.4231 18.3011 53.7862 18.5064C54.1571 18.7127 54.5689 18.8464 55.0219 18.9074C55.4595 18.9664 55.8806 18.9451 56.2851 18.8433C56.6907 18.7338 57.0693 18.5347 57.4209 18.246L58.0716 19.0724C57.6472 19.4373 57.1557 19.6915 56.597 19.835C56.0459 19.9796 55.4557 20.0094 54.8261 19.9246ZM58.6116 20.536L61.6498 12.9908L64.5924 14.1757C65.5697 14.5692 66.2445 15.1123 66.6169 15.8051C66.9922 16.4907 67.0135 17.2467 66.6808 18.0731C66.4609 18.6192 66.1456 19.0392 65.7349 19.3332C65.3272 19.6199 64.8478 19.7735 64.2968 19.7938C63.7458 19.8141 63.1398 19.6912 62.4787 19.425L60.1289 18.4788L60.8136 18.1783L59.6895 20.97L58.6116 20.536ZM63.6561 22.5672L62.8399 19.0568L63.9932 19.5212L64.831 23.0403L63.6561 22.5672ZM60.7702 18.2861L60.4977 17.5626L62.8152 18.4958C63.505 18.7736 64.0853 18.836 64.5561 18.6832C65.0369 18.5261 65.3858 18.178 65.6028 17.6391C65.8198 17.1001 65.808 16.611 65.5673 16.1717C65.3339 15.7353 64.8722 15.3782 64.1824 15.1005L61.8649 14.1673L62.567 13.8237L60.7702 18.2861ZM68.5114 25.8329C68.0203 25.4549 67.6267 25.02 67.3307 24.5283C67.0408 24.0412 66.8558 23.5323 66.7757 23.0014C66.7002 22.4643 66.7301 21.9301 66.8653 21.3988C67.0006 20.8675 67.2501 20.3655 67.6139 19.8928C67.9777 19.4201 68.3991 19.0504 68.8781 18.7836C69.3571 18.5169 69.8634 18.3543 70.3972 18.2959C70.9356 18.2313 71.4774 18.2768 72.0224 18.4323C72.5674 18.5879 73.0885 18.857 73.5858 19.2397C74.0769 19.6177 74.4643 20.0478 74.748 20.5301C75.0426 21.011 75.2277 21.52 75.3031 22.057C75.3894 22.5926 75.3619 23.1238 75.2205 23.6504C75.0853 24.1817 74.8334 24.6868 74.4649 25.1656C74.0964 25.6444 73.6726 26.0172 73.1936 26.2839C72.7207 26.5554 72.212 26.7211 71.6674 26.7809C71.1337 26.8393 70.5943 26.7908 70.0493 26.6352C69.5152 26.4783 69.0025 26.2108 68.5114 25.8329ZM69.1422 25.0133C69.4982 25.2874 69.8739 25.4787 70.2692 25.5875C70.6706 25.7009 71.0669 25.7322 71.458 25.6813C71.8599 25.629 72.2381 25.4997 72.5924 25.2933C72.9528 25.0918 73.27 24.8129 73.5441 24.4569C73.8181 24.1008 74.0064 23.7228 74.109 23.3228C74.2177 22.9275 74.2436 22.5319 74.1865 22.1361C74.1403 21.7389 74.011 21.3607 73.7986 21.0017C73.5922 20.6474 73.3111 20.3333 72.955 20.0592C72.5928 19.7805 72.211 19.5844 71.8096 19.4709C71.4143 19.3622 71.0156 19.334 70.6137 19.3863C70.2164 19.4325 69.8376 19.5564 69.4772 19.7579C69.1229 19.9643 68.8087 20.2454 68.5347 20.6015C68.2607 20.9576 68.0693 21.3332 67.9606 21.7285C67.858 22.1286 67.8328 22.5296 67.8851 22.9315C67.9422 23.3273 68.0739 23.7024 68.2802 24.0567C68.4926 24.4157 68.78 24.7346 69.1422 25.0133ZM72.499 29.2606L78.8886 24.2275L79.6077 25.1403L74.0122 29.5479L76.7373 33.0074L75.9432 33.633L72.499 29.2606ZM76.1316 34.1345L83.3954 30.4744L83.9183 31.5121L77.5573 34.7173L79.539 38.6502L78.6362 39.1051L76.1316 34.1345ZM79.533 41.8108L87.5803 40.6277L88.0789 44.0191C88.2052 44.8774 88.1475 45.6572 87.9061 46.3582C87.6658 47.0669 87.2693 47.6459 86.7168 48.0951C86.1654 48.552 85.4912 48.839 84.6941 48.9562C83.8971 49.0734 83.1688 48.9925 82.5092 48.7137C81.8508 48.4425 81.3045 48.0021 80.8704 47.3926C80.4374 46.7907 80.1578 46.0606 80.0315 45.2022L79.533 41.8108ZM80.7022 42.8134L81.0216 44.9862C81.1196 45.653 81.3306 46.2092 81.6546 46.6548C81.9796 47.1081 82.3879 47.4357 82.8796 47.6374C83.3789 47.8381 83.9274 47.8944 84.5252 47.8065C85.1307 47.7175 85.6398 47.5057 86.0525 47.171C86.4653 46.8362 86.7621 46.405 86.9429 45.8773C87.1248 45.3573 87.1667 44.7639 87.0687 44.0971L86.7492 41.9243L80.7022 42.8134ZM79.9591 54.1707C80.0468 53.5572 80.232 53.0007 80.5147 52.5011C80.7963 52.0093 81.1486 51.5979 81.5715 51.2671C82.0021 50.9374 82.482 50.7009 83.0111 50.5574C83.5403 50.4139 84.1001 50.3844 84.6906 50.4689C85.2811 50.5533 85.8102 50.7385 86.2779 51.0245C86.7457 51.3105 87.1362 51.6715 87.4495 52.1075C87.7704 52.5447 87.9971 53.0388 88.1296 53.5899C88.2621 54.1409 88.284 54.727 88.1952 55.3482C88.1075 55.9617 87.9233 56.5105 87.6428 56.9947C87.3689 57.4877 87.0166 57.899 86.5861 58.2287C86.162 58.5671 85.686 58.8043 85.158 58.9401C84.6288 59.0835 84.0651 59.1125 83.467 59.027C82.8688 58.9415 82.3359 58.7557 81.8681 58.4697C81.3993 58.1914 81.0049 57.8298 80.6851 57.385C80.3718 56.949 80.1489 56.4554 80.0164 55.9043C79.8905 55.362 79.8714 54.7841 79.9591 54.1707ZM80.9829 54.317C80.9193 54.7618 80.9373 55.183 81.037 55.5807C81.1355 55.9861 81.3031 56.3465 81.5397 56.6621C81.7828 56.9864 82.0814 57.2521 82.4352 57.4592C82.7879 57.6739 83.1867 57.8131 83.6314 57.8767C84.0762 57.9403 84.498 57.9184 84.8968 57.8111C85.2945 57.7115 85.6516 57.5395 85.9683 57.2952C86.2915 57.0597 86.5572 56.7612 86.7654 56.3997C86.9725 56.0459 87.1078 55.6466 87.1714 55.2018C87.2361 54.7494 87.2192 54.3205 87.1206 53.9151C87.021 53.5174 86.8496 53.1564 86.6064 52.8321C86.3709 52.5089 86.0768 52.2399 85.724 52.0252C85.3702 51.8181 84.9709 51.6827 84.5261 51.6191C84.0813 51.5555 83.6601 51.5736 83.2624 51.6732C82.8636 51.7805 82.5021 51.9558 82.1778 52.1989C81.8612 52.4432 81.5993 52.7423 81.3922 53.0961C81.184 53.4576 81.0476 53.8646 80.9829 54.317ZM78.4541 60.8962L86.918 62.2802L86.3603 63.3392L78.5545 62.0522L78.836 61.5176L84.2705 67.3078L83.7724 68.2537L75.9503 66.9976L76.2211 66.4835L81.6826 72.2224L81.1683 73.1991L75.2381 67.0034L75.8066 65.9239L83.0697 67.0695L82.9235 67.347L77.8748 61.9963L78.4541 60.8962ZM73.1834 69.6646L78.6955 75.646L77.9948 76.2917L69.5108 75.0242L69.8782 74.6857L74.406 79.5989L73.5515 80.3864L68.0394 74.405L68.7401 73.7593L77.2241 75.0267L76.8567 75.3653L72.3289 70.452L73.1834 69.6646ZM63.8179 82.5567C63.455 82.7087 63.0922 82.7089 62.7294 82.5573C62.3646 82.4108 62.1062 82.1561 61.9542 81.7932C61.8022 81.4304 61.8013 81.0658 61.9514 80.6995C62.0994 80.3381 62.3549 80.0815 62.7177 79.9295C63.0805 79.7776 63.4444 79.7749 63.8092 79.9215C64.172 80.073 64.4294 80.3302 64.5814 80.693C64.7333 81.0559 64.7353 81.418 64.5873 81.7793C64.4407 82.1442 64.1842 82.4033 63.8179 82.5567ZM63.6515 82.1589C63.9062 82.0523 64.0845 81.8711 64.1864 81.615C64.2899 81.3626 64.289 81.1107 64.1838 80.8595C64.0772 80.6048 63.8977 80.4258 63.6451 80.3224C63.3892 80.2204 63.1356 80.222 62.8844 80.3272C62.6332 80.4324 62.4559 80.6112 62.3525 80.8637C62.2455 81.1176 62.2454 81.3719 62.3521 81.6266C62.4572 81.8778 62.6361 82.0551 62.8885 82.1585C63.1424 82.2654 63.3968 82.2656 63.6515 82.1589Z" fill="#AD9ACA"/>
</g>
<defs>
<clipPath id="clip0_2746_3">
<rect width="100" height="100" fill="white"/>
</clipPath>
<clipPath id="clip1_2746_3">
<rect width="20.2344" height="21.9206" fill="white" transform="translate(64.9041 51.0959) rotate(135)"/>
</clipPath>
</defs>
</svg>
