<?xml version="1.0" encoding="UTF-8" standalone="no"?>
<!-- Created with Inkscape (http://www.inkscape.org/) -->

<svg
   width="37.082001mm"
   height="37.082001mm"
   viewBox="0 0 37.082 37.082"
   version="1.1"
   id="svg1"
   inkscape:version="1.3.2 (091e20e, 2023-11-25, custom)"
   sodipodi:docname="emblem-lets-talk.svg"
   xmlns:inkscape="http://www.inkscape.org/namespaces/inkscape"
   xmlns:sodipodi="http://sodipodi.sourceforge.net/DTD/sodipodi-0.dtd"
   xmlns:xlink="http://www.w3.org/1999/xlink"
   xmlns="http://www.w3.org/2000/svg"
   xmlns:svg="http://www.w3.org/2000/svg">
  <sodipodi:namedview
     id="namedview1"
     pagecolor="#ffffff"
     bordercolor="#000000"
     borderopacity="0.25"
     inkscape:showpageshadow="2"
     inkscape:pageopacity="0.0"
     inkscape:pagecheckerboard="0"
     inkscape:deskcolor="#d1d1d1"
     inkscape:document-units="mm"
     inkscape:zoom="1.8494108"
     inkscape:cx="116.79395"
     inkscape:cy="87.325109"
     inkscape:window-width="1366"
     inkscape:window-height="715"
     inkscape:window-x="-8"
     inkscape:window-y="-8"
     inkscape:window-maximized="1"
     inkscape:current-layer="g2" />
  <defs
     id="defs1">
    <linearGradient
       id="linearGradient9"
       inkscape:collect="always">
      <stop
         style="stop-color:#8338ec;stop-opacity:1;"
         offset="0"
         id="stop9" />
      <stop
         style="stop-color:#b923ff;stop-opacity:1;"
         offset="1"
         id="stop10" />
    </linearGradient>
    <clipPath
       id="clip1_2746_3">
      <rect
         width="20.2344"
         height="21.920601"
         fill="#ffffff"
         transform="rotate(135,21.869743,38.990029)"
         id="rect5"
         x="0"
         y="0" />
    </clipPath>
    <linearGradient
       inkscape:collect="always"
       xlink:href="#linearGradient9"
       id="linearGradient10"
       x1="69.029503"
       y1="77.388336"
       x2="99.302788"
       y2="77.388336"
       gradientUnits="userSpaceOnUse"
       gradientTransform="matrix(1.2360409,0,0,1.2360409,-88.627806,-80.25016)" />
  </defs>
  <g
     inkscape:label="Layer 1"
     inkscape:groupmode="layer"
     id="layer1">
    <text
       xml:space="preserve"
       style="font-weight:500;font-size:3.175px;line-height:0;font-family:Montserrat;-inkscape-font-specification:'Montserrat Medium';letter-spacing:0px;opacity:0.00884956;fill:#000000;stroke:#e9deff;stroke-width:0.335;stroke-opacity:1"
       x="-17.602055"
       y="-2.6301918"
       id="text1"><tspan
         sodipodi:role="line"
         id="tspan1"
         style="stroke-width:0.335"
         x="-17.602055"
         y="-2.6301918" /></text>
    <g
       id="g2"
       transform="translate(3.1360006,3.1360005)">
      <path
         d="m 27.202143,27.202145 c -1.544705,1.544749 -0.738356,2.988028 -2.630261,4.080345 -1.891904,1.09229 -2.73869,-0.327699 -4.848814,0.237735 -2.110164,0.565418 -2.133458,2.218494 -4.318065,2.218494 -2.184573,0 -2.207912,-1.653076 -4.318034,-2.218494 C 8.9768015,30.954791 8.1300607,32.37478 6.23816,31.28249 4.3462595,30.190173 5.152602,28.746894 3.6078585,27.202145 2.0631161,25.657413 0.6198379,26.463789 -0.47246144,24.571885 -1.5647535,22.679951 -0.14478827,21.833209 -0.7102016,19.72307 -1.27561,17.612921 -2.9287174,17.589584 -2.9287174,15.405007 c 0,-2.184575 1.6531074,-2.207913 2.2185158,-4.318065 C -0.14478827,8.9768039 -1.5647535,8.1300328 -0.47246517,6.2381298 0.6198379,4.3462255 2.0631161,5.152573 3.6078585,3.6078677 5.152602,2.0631204 4.3462213,0.61983977 6.23816,-0.47246209 8.1300607,-1.5647504 8.9768015,-0.1447926 11.086969,-0.71019611 13.197091,-1.2756144 13.22043,-2.9287192 15.405003,-2.9287192 c 2.184563,0 2.207901,1.6531048 4.318065,2.21852309 2.110124,0.56540351 2.95691,-0.85456789 4.848814,0.23773402 1.891905,1.09227462 1.085556,2.53558249 2.630261,4.08032979 1.544749,1.5447053 2.988056,0.7383578 4.080343,2.6302621 1.09229,1.891903 -0.327697,2.7386741 0.237721,4.8488122 0.565434,2.110152 2.21851,2.13349 2.21851,4.318065 0,2.184577 -1.653076,2.207914 -2.21851,4.318063 -0.565418,2.110139 0.854569,2.956881 -0.237721,4.848772 -1.092287,1.891947 -2.535594,1.085571 -4.080343,2.630303 z"
         stroke="#ad9aca"
         stroke-width="0.608062"
         id="path5"
         style="fill:none;stroke:url(#linearGradient10);stroke-width:0.414074;stroke-dasharray:none" />
      <path
         d="m 17.72957,13.42396 -4.46141,4.46141 m 4.46141,-4.46141 c 0,0 -0.619638,0.247856 -1.858932,0.247837 -1.239276,0 -1.858913,-0.247855 -1.858913,-0.247855 m 3.717845,1.8e-5 c 0,0 -0.247893,0.619638 -0.247893,1.858913 0,1.239276 0.247893,1.858914 0.247893,1.858914"
         stroke="#ad9aca"
         stroke-width="0.396875"
         stroke-linecap="square"
         stroke-linejoin="round"
         id="path7"
         clip-path="none"
         style="fill:none;stroke:#e9deff;stroke-opacity:1" />
      <path
         d="m 25.953821,21.070329 2.199344,1.373358 -0.196194,0.314192 -1.925997,-1.202669 -0.743576,1.190787 -0.273347,-0.170688 z m -1.274355,1.893695 1.856159,1.810498 -1.277694,1.309918 -0.230694,-0.225019 1.019051,-1.044753 -1.394771,-1.360459 -1.055261,1.081876 -0.230694,-0.225019 z m 0.594603,1.050852 0.225391,0.219846 -0.931113,0.954596 -0.225391,-0.219846 z m -2.887456,0.991047 1.254419,1.8927 0.741025,-0.491127 0.178033,0.268621 -1.787721,1.184843 -0.178034,-0.268621 0.741025,-0.491127 -1.254419,-1.892699 z m -0.717739,2.262203 0.454346,0.891244 -0.280279,0.135124 -0.410969,-0.912156 z M 19.350829,26.4612 q 0.282122,-0.09067 0.566759,-0.08877 0.28577,0.0054 0.478085,0.09536 l -0.04208,0.317004 q -0.180728,-0.0781 -0.42544,-0.08894 -0.244712,-0.01084 -0.480989,0.06509 -0.215118,0.06913 -0.333259,0.161573 -0.118141,0.09244 -0.154418,0.197476 -0.03514,0.108563 -10e-6,0.217885 0.0408,0.126955 0.150371,0.177338 0.106044,0.05152 0.254786,0.05429 0.146348,0.0074 0.316375,-0.0083 0.170028,-0.01574 0.346981,-0.02202 0.174561,-0.0016 0.33237,0.02936 0.154281,0.03212 0.275059,0.129484 0.121911,0.100888 0.185378,0.298374 0.0612,0.190432 0.01346,0.38086 -0.05014,0.195087 -0.2276,0.357171 -0.179858,0.166744 -0.504298,0.271012 -0.215118,0.06914 -0.444843,0.08071 -0.229725,0.01158 -0.418893,-0.04435 l 0.02571,-0.319522 q 0.192694,0.05479 0.383754,0.04397 0.192193,-0.0073 0.35794,-0.06056 0.208065,-0.06687 0.325073,-0.162833 0.117007,-0.09597 0.152151,-0.204529 0.03162,-0.10743 -0.0035,-0.216753 -0.04193,-0.130481 -0.147978,-0.181998 -0.10957,-0.05038 -0.254785,-0.05429 -0.148742,-0.0028 -0.319902,0.0094 -0.170027,0.01574 -0.343455,0.02089 -0.176953,0.0063 -0.331235,-0.02583 -0.157809,-0.03099 -0.278586,-0.128351 -0.120778,-0.09736 -0.183112,-0.29132 -0.06007,-0.186906 -0.0099,-0.381993 0.05127,-0.191561 0.234653,-0.359438 0.180991,-0.163218 0.505431,-0.267486 z m -3.147058,0.589537 0.07215,2.269509 0.888552,-0.02825 0.01024,0.3221 -2.143631,0.06815 -0.01024,-0.3221 0.888552,-0.02825 -0.07215,-2.269509 z m -1.226792,0.06352 -1.596862,2.35628 -0.361403,-0.06218 -0.721229,-2.755098 0.383307,0.06595 0.628631,2.528687 -0.146022,-0.02512 1.437573,-2.173204 z m -0.602733,0.554056 -0.148809,0.275085 -1.438311,-0.247456 -0.05562,-0.310256 z m -2.512858,-1.20732 -0.954125,2.41099 -0.344427,-0.136303 0.835541,-2.111339 -1.305379,-0.51659 0.118584,-0.299652 z m -2.7146684,-0.55501 -0.2324065,0.38801 -2.0606108,0.460063 -0.3530735,-0.231637 1.609157,-0.379678 0.2994175,-0.07824 z M 9.762659,25.561377 8.3403273,27.729372 8.0306137,27.526182 9.4529454,25.358187 Z m -1.5361792,-1.007824 0.2102225,1.6176 -0.3578689,0.09305 L 7.864115,24.315821 Z M 6.1406965,23.51876 q 0.059931,0.06566 0.082276,0.150585 0.019609,0.08742 -0.00538,0.175426 -0.027489,0.08527 -0.1013583,0.152693 -0.071134,0.06492 -0.1558176,0.08204 -0.089917,0.01687 -0.1751875,-0.01062 -0.085271,-0.02749 -0.1452018,-0.09315 -0.062428,-0.0684 -0.07954,-0.153082 -0.019609,-0.08742 0.00788,-0.17269 0.024753,-0.08277 0.095886,-0.147699 0.07387,-0.06742 0.1612894,-0.08703 0.08742,-0.01961 0.1726904,0.0079 0.080038,0.02725 0.1424659,0.09565 z M 5.3368996,21.382106 3.0671848,22.63575 2.8880928,22.311505 4.8757145,21.213671 4.1969557,19.984782 4.4790488,19.828972 Z M 4.2973403,19.349922 1.820341,20.11654 1.2793276,18.368486 l 0.3078557,-0.09528 0.4314964,1.394196 1.8612881,-0.576058 -0.4468289,-1.443737 0.3078557,-0.09528 z m -1.2072329,0.02078 -0.3007785,0.09309 -0.3942607,-1.273885 0.3007784,-0.09309 z m 0.5016481,-3.009184 -2.2611286,0.207791 0.081354,0.885271 -0.3209106,0.02949 -0.19626595,-2.135716 0.32091055,-0.02949 0.081354,0.88527 2.2611286,-0.207791 z m -1.6518959,-1.705517 -1.00010312,-0.02323 0.0141338,-0.310829 0.99791572,0.07133 z m 1.8136018,-1.65641 q -0.055453,0.291099 -0.1933832,0.54009 -0.1415691,0.248299 -0.3125926,0.374093 l -0.2581745,-0.1887 q 0.1550822,-0.121289 0.2817491,-0.330948 0.1266668,-0.209659 0.1731086,-0.453454 0.042283,-0.221963 0.01768,-0.369939 -0.024602,-0.147976 -0.099455,-0.230109 -0.078492,-0.08283 -0.1912924,-0.104315 -0.1309945,-0.02495 -0.2276825,0.04713 -0.095995,0.06844 -0.1696386,0.197702 -0.076589,0.124929 -0.1441688,0.281741 -0.06758,0.156811 -0.1467685,0.315182 -0.082135,0.154039 -0.1848881,0.277754 -0.1020604,0.120077 -0.2453589,0.179508 -0.1469372,0.05874 -0.3507064,0.01992 -0.1964918,-0.03743 -0.3408265,-0.170508 -0.1472802,-0.137408 -0.2046297,-0.370809 -0.060295,-0.237733 0.00348,-0.572497 0.042283,-0.221963 0.1420921,-0.429196 0.099809,-0.207234 0.2394706,-0.346543 l 0.2682246,0.175531 q -0.1403543,0.142948 -0.2223159,0.315874 -0.0856,0.172232 -0.1181788,0.343253 -0.040897,0.214685 -0.012656,0.363355 0.028241,0.148669 0.1067325,0.231496 0.079185,0.07919 0.1919855,0.100675 0.1346333,0.02565 0.2306282,-0.04279 0.096688,-0.07208 0.1696385,-0.197703 0.073644,-0.129261 0.144862,-0.285379 0.06758,-0.156812 0.1460754,-0.311544 0.079189,-0.15837 0.1812493,-0.278447 0.1027536,-0.123716 0.246052,-0.183146 0.1432985,-0.05943 0.343429,-0.02131 0.192853,0.03674 0.3401333,0.174146 0.1436415,0.136716 0.2032433,0.378087 0.056656,0.23704 -0.00711,0.571804 z M 4.763582,9.9626391 2.7538588,8.905808 2.3400913,9.692649 2.0548614,9.5426583 3.0530755,7.6444042 3.3383054,7.794395 2.9245379,8.581236 4.9342611,9.6380672 Z M 5.3123303,8.8615047 4.092323,6.2898111 4.3292976,6.0099516 7.0692933,6.7865867 6.8179566,7.0834074 4.3200441,6.3418783 4.4157915,6.2288037 5.5588796,8.5703378 Z M 5.1407763,8.0609837 4.9792566,7.7931637 5.9223675,6.6793794 6.2179334,6.7888949 Z M 7.4633397,6.5153025 5.904927,4.442966 6.2009751,4.2203356 7.5656993,6.0351103 8.6877215,5.1913412 8.88141,5.448903 Z M 9.3669638,4.4945155 9.1629051,4.0908763 9.8737667,2.1027991 10.258107,1.9278729 9.7202442,3.4912811 9.6265809,3.7862369 Z M 9.3296006,5.1993136 8.2554925,2.8393303 8.592633,2.6858863 9.666741,5.0458695 Z M 11.001817,4.4382313 9.5217212,3.7525664 9.6340567,3.400275 11.396272,4.2587018 Z m 2.000095,-1.1949799 q -0.08767,0.014743 -0.171137,-0.012539 -0.08408,-0.030934 -0.14447,-0.099659 -0.05673,-0.069339 -0.07332,-0.1679667 -0.01597,-0.094975 0.01558,-0.1754039 0.03459,-0.084696 0.103926,-0.141431 0.06934,-0.056735 0.157008,-0.071478 0.09132,-0.015357 0.171751,0.016191 0.08408,0.030934 0.140817,0.1002732 0.05612,0.065686 0.07209,0.1606609 0.01659,0.098628 -0.01435,0.1827097 -0.03093,0.084082 -0.100273,0.1408167 -0.0663,0.052468 -0.157622,0.067825 z m 2.231268,0.4860946 0.178251,-2.5867847 0.369541,0.025464 -0.156097,2.2652844 1.400559,0.09651 -0.02215,0.3215003 z m 2.270687,0.2285378 0.683527,-2.5012037 1.765135,0.4823747 -0.08495,0.3108639 -1.407821,-0.384728 -0.513621,1.8794759 1.457844,0.3983985 -0.08495,0.3108639 z m 0.630791,-1.0295369 0.083,-0.3037176 1.286333,0.3515281 -0.083,0.3037176 z M 20.407921,4.9578523 21.423079,2.9267601 20.627871,2.5293087 20.771947,2.241046 22.690385,3.1998976 22.546309,3.4881602 21.751102,3.0907088 20.735944,5.121801 Z m 2.310104,-0.5189036 0.538723,-0.8429257 0.258391,0.1733447 -0.578711,0.8160985 z m 0.480551,2.4029591 Q 22.976319,6.6459097 22.832308,6.4003842 22.690748,6.1520804 22.669612,5.9408309 l 0.293892,-0.1260517 q 0.02538,0.1952366 0.14128,0.4110342 0.1159,0.2157975 0.30204,0.379946 0.169471,0.1494486 0.309343,0.2036527 0.139872,0.054204 0.248679,0.031626 0.111258,-0.025356 0.187207,-0.1114805 0.0882,-0.1000158 0.07542,-0.219936 -0.01,-0.1174703 -0.08372,-0.2466862 Q 24.075263,6.1333912 23.974738,5.9953601 23.874218,5.857329 23.77827,5.7085132 23.68755,5.5593692 23.633427,5.4079275 q -0.05134,-0.1489917 -0.02949,-0.3025787 0.0243,-0.1563653 0.161499,-0.3119454 0.132298,-0.1500237 0.320337,-0.2064442 0.193268,-0.056749 0.423332,0.012788 0.235292,0.069208 0.490888,0.2946064 0.169471,0.1494486 0.296965,0.3408987 0.127493,0.1914501 0.176235,0.3825955 L 25.18551,5.7592565 Q 25.13399,5.5656611 25.026929,5.4070454 24.922317,5.2456515 24.791741,5.1305026 24.627826,4.985954 24.485504,4.9345281 q -0.142321,-0.051426 -0.253579,-0.02607 -0.108479,0.027806 -0.184428,0.1139305 -0.09065,0.102794 -0.08065,0.2202643 0.01278,0.1199202 0.08372,0.2466862 0.07372,0.1292159 0.171793,0.2700252 0.10052,0.1380312 0.19369,0.284397 0.09595,0.1488157 0.147293,0.2978074 0.05412,0.1514417 0.03227,0.3050287 -0.02185,0.1535871 -0.156599,0.306389 -0.129849,0.1472455 -0.323116,0.2039941 -0.190817,0.05397 -0.428888,-0.017688 -0.232842,-0.071987 -0.488438,-0.2973847 z M 25.324501,9.2360504 27.231045,8.0027739 26.748196,7.2563294 27.018782,7.0812967 28.183655,8.882094 27.913069,9.0571267 27.43022,8.3106822 25.523676,9.5439588 Z m 0.689761,1.0165346 2.841721,0.163245 0.131872,0.342181 -1.995876,2.031556 -0.139864,-0.36292 1.84894,-1.835988 0.05328,0.138255 -2.602875,-0.120322 z m 0.784692,0.233504 0.312475,-0.01324 0.524823,1.361813 -0.237881,0.206798 z m 0.247559,2.777227 2.563434,-0.389916 0.0557,0.366205 -2.244835,0.341455 0.211111,1.387917 -0.318598,0.04846 z m 0.878424,2.634395 0.452122,0.01226 1.411491,1.57018 -0.02872,0.421298 -1.120038,-1.216165 -0.21502,-0.222571 z m -0.602388,-0.367784 2.586916,0.176334 -0.02519,0.36956 -2.586916,-0.176335 z m -0.124945,1.833015 1.306625,-0.976499 0.256596,0.266246 -1.592694,1.142637 z m 0.08535,2.330481 q 0.02961,-0.08382 0.09394,-0.143596 0.06782,-0.05854 0.157208,-0.07803 0.08815,-0.016 0.182452,0.01731 0.09081,0.03208 0.145855,0.09867 0.0573,0.07131 0.07331,0.159467 0.016,0.08815 -0.01361,0.171974 -0.03085,0.08732 -0.09743,0.142363 -0.06782,0.05854 -0.155974,0.07454 -0.08466,0.01723 -0.175468,-0.01485 -0.0943,-0.03331 -0.15284,-0.101137 -0.05854,-0.06782 -0.07454,-0.155973 -0.01374,-0.08342 0.01711,-0.170741 z"
         id="text2"
         style="font-weight:500;font-size:3.70417px;line-height:0;font-family:Montserrat;-inkscape-font-specification:'Montserrat Medium';letter-spacing:0.079375px;fill:#e9deff;stroke-width:0.335;fill-opacity:1"
         aria-label="LET'S TALK • LET'S TALK • LET'S TALK • " />
      <path
         d="m 21.456079,21.404673 c -0.777181,0.777181 -0.371478,1.50329 -1.323303,2.052839 -0.951851,0.54955 -1.377846,-0.164837 -2.439497,0.119543 -1.061623,0.284472 -1.073346,1.116153 -2.172444,1.116153 -1.099085,0 -1.110807,-0.831681 -2.17243,-1.116153 -1.061623,-0.28444 -1.487645,0.429946 -2.439469,-0.119543 C 9.9570847,22.907963 10.362771,22.181854 9.5855891,21.404673 8.8084527,20.627492 8.082315,21.033194 7.5327638,20.081371 6.9832172,19.129518 7.6976388,18.703524 7.4131592,17.641872 7.1286829,16.580249 6.2970045,16.568527 6.2970045,15.469428 c 0,-1.099085 0.8316784,-1.110807 1.1161547,-2.17243 C 7.6976377,12.235377 6.9832161,11.809352 7.5327637,10.85753 8.0823149,9.9056767 8.8084527,10.311364 9.5855891,9.5341835 10.362771,8.7570452 9.9570847,8.0309072 10.908936,7.4813583 c 0.951824,-0.54955 1.377846,0.1648658 2.439469,-0.1195457 1.061623,-0.2844855 1.073345,-1.1161524 2.17243,-1.1161524 1.099098,0 1.110821,0.8316669 2.172444,1.1161524 1.061651,0.2844704 1.487646,-0.4299454 2.439497,0.1195457 0.951825,0.5495489 0.546122,1.2756869 1.323303,2.0528252 0.777182,0.7771805 1.503292,0.3714932 2.05284,1.3233465 0.54955,0.951822 -0.164837,1.377847 0.119543,2.439468 0.28447,1.061623 1.116152,1.073345 1.116152,2.17243 0,1.099099 -0.831682,1.110821 -1.116152,2.172444 -0.284442,1.061652 0.429945,1.487646 -0.119543,2.439499 -0.549548,0.951823 -1.275658,0.546121 -2.05284,1.323302 z"
         stroke="#ad9aca"
         id="path6"
         style="fill:none;stroke:#e9deff;stroke-width:0.38458;stroke-dasharray:none;stroke-opacity:1" />
    </g>
  </g>
</svg>
