<?xml version="1.0" encoding="UTF-8" standalone="no"?>
<!-- Created with Inkscape (http://www.inkscape.org/) -->

<svg
   width="100"
   height="100"
   viewBox="0 0 26.458333 26.458333"
   version="1.1"
   id="svg1"
   inkscape:version="1.3.2 (091e20e, 2023-11-25, custom)"
   sodipodi:docname="drawing.svg"
   xmlns:inkscape="http://www.inkscape.org/namespaces/inkscape"
   xmlns:sodipodi="http://sodipodi.sourceforge.net/DTD/sodipodi-0.dtd"
   xmlns="http://www.w3.org/2000/svg"
   xmlns:svg="http://www.w3.org/2000/svg">
  <sodipodi:namedview
     id="namedview1"
     pagecolor="#ffffff"
     bordercolor="#000000"
     borderopacity="0.25"
     inkscape:showpageshadow="2"
     inkscape:pageopacity="0.0"
     inkscape:pagecheckerboard="0"
     inkscape:deskcolor="#d1d1d1"
     inkscape:document-units="mm"
     showguides="true"
     inkscape:zoom="3.6988215"
     inkscape:cx="53.665741"
     inkscape:cy="32.8483"
     inkscape:window-width="1366"
     inkscape:window-height="715"
     inkscape:window-x="-8"
     inkscape:window-y="-8"
     inkscape:window-maximized="1"
     inkscape:current-layer="layer1" />
  <defs
     id="defs1" />
  <g
     inkscape:label="Layer 1"
     inkscape:groupmode="layer"
     id="layer1">
    <path
       sodipodi:type="star"
       style="fill:none;stroke:#ad9aca;stroke-width:3.8017;stroke-dasharray:none;stroke-opacity:1"
       id="path1"
       inkscape:flatsided="false"
       sodipodi:sides="12"
       sodipodi:cx="55.508671"
       sodipodi:cy="105.2948"
       sodipodi:r1="69.543236"
       sodipodi:r2="76.421135"
       sodipodi:arg1="0.78539816"
       sodipodi:arg2="1.0471975"
       inkscape:rounded="0.45"
       inkscape:randomized="0"
       d="m 104.68316,154.46929 c -6.438965,6.43897 -3.07782,12.45511 -10.963918,17.00815 -7.886098,4.55304 -11.415658,-1.36586 -20.211457,0.99097 -8.795796,2.35682 -8.893032,9.24752 -17.99911,9.24752 -9.106081,0 -9.203319,-6.8907 -17.999118,-9.24752 -8.795796,-2.35683 -12.325355,3.56208 -20.21145,-0.99096 -7.8860978,-4.55304 -4.524958,-10.56919 -10.9639296,-17.00816 -6.43896994,-6.43897 -12.4551098,-3.07782 -17.0081484,-10.96392 -4.553041,-7.8861 1.365862,-11.41566 -0.990966,-20.21146 -2.356827,-8.79579 -9.247527,-8.89303 -9.247527,-17.99911 0,-9.106077 6.890701,-9.203315 9.247527,-17.999114 2.3568263,-8.795796 -3.562077,-12.325355 0.990962,-20.21145 4.5530401,-7.886098 10.56918072,-4.524958 17.008152,-10.96393 6.438969,-6.43897 3.077828,-12.455109 10.963923,-17.008148 7.886097,-4.553041 11.415658,1.365862 20.211457,-0.990966 8.795796,-2.356827 8.893032,-9.247527 17.99911,-9.247527 9.106081,0 9.203318,6.890701 17.999117,9.247527 8.795797,2.356826 12.325356,-3.562077 20.211451,0.990962 7.886095,4.55304 4.524957,10.569181 10.963925,17.008152 6.43897,6.438969 12.45511,3.077828 17.00815,10.963923 4.55304,7.886097 -1.36586,11.415658 0.99097,20.211457 2.35683,8.795796 9.24753,8.893032 9.24753,17.999114 0,9.10608 -6.8907,9.20331 -9.24753,17.99911 -2.35683,8.7958 3.56208,12.32536 -0.99096,20.21145 -4.55304,7.8861 -10.56918,4.52496 -17.00816,10.96393 z"
       inkscape:transform-center-x="0.62398902"
       inkscape:transform-center-y="-0.62398891"
       transform="matrix(0.16890745,0,0,0.16890745,3.8533389,-4.5559087)" />
  </g>
</svg>
