<svg width="712" height="712" viewBox="0 0 712 712" fill="none" xmlns="http://www.w3.org/2000/svg">
<path d="M587.215 587.215C554.207 620.222 574.175 640.409 533.749 663.749C493.323 687.088 485.825 659.703 440.736 671.785C395.646 683.866 402.846 711.332 356.166 711.332C309.486 711.332 316.685 683.866 271.596 671.785C226.507 659.703 219.009 687.088 178.583 663.749C138.157 640.409 158.125 620.222 125.117 587.215C92.1093 554.207 71.9231 574.175 48.5832 533.749C25.2433 493.323 52.6287 485.825 40.5471 440.736C28.4655 395.646 1 402.846 1 356.166C1 309.486 28.4655 316.685 40.5471 271.596C52.6287 226.507 25.2433 219.009 48.5832 178.583C71.9231 138.157 92.1093 158.125 125.117 125.117C158.125 92.1093 138.157 71.9231 178.583 48.5832C219.009 25.2433 226.507 52.6287 271.596 40.5471C316.685 28.4655 309.486 1 356.166 1C402.846 1 395.646 28.4655 440.736 40.5471C485.825 52.6287 493.323 25.2433 533.749 48.5832C574.175 71.9231 554.207 92.1093 587.215 125.117C620.222 158.124 640.409 138.157 663.748 178.583C687.088 219.009 659.703 226.507 671.785 271.596C683.866 316.685 711.332 309.486 711.332 356.166C711.332 402.846 683.866 395.646 671.785 440.736C659.703 485.825 687.088 493.323 663.749 533.749C640.409 574.175 620.222 554.207 587.215 587.215Z" stroke="#AA9BC2"/>
</svg>
