<svg width="363" height="363" viewBox="0 0 363 363" fill="none" xmlns="http://www.w3.org/2000/svg">
<path d="M298.922 298.922C282.147 315.697 292.295 325.956 271.75 337.818C251.205 349.679 247.394 335.762 224.48 341.902C201.565 348.042 205.223 362 181.5 362C157.777 362 161.435 348.042 138.521 341.902C115.606 335.762 111.795 349.679 91.25 337.818C70.705 325.956 80.8528 315.697 64.0779 298.922C47.3029 282.147 37.0441 292.295 25.1824 271.75C13.3208 251.205 27.2384 247.394 21.0984 224.479C14.9583 201.565 1 205.223 1 181.5C1 157.777 14.9583 161.435 21.0984 138.521C27.2384 115.606 13.3208 111.795 25.1824 91.25C37.0441 70.705 47.3029 80.8528 64.0779 64.0779C80.8528 47.3029 70.705 37.0441 91.25 25.1824C111.795 13.3208 115.606 27.2384 138.521 21.0984C161.435 14.9583 157.777 1 181.5 1C205.223 1 201.565 14.9583 224.48 21.0984C247.394 27.2384 251.205 13.3208 271.75 25.1824C292.295 37.0441 282.147 47.3029 298.922 64.0779C315.697 80.8528 325.956 70.705 337.818 91.25C349.679 111.795 335.762 115.606 341.902 138.521C348.042 161.435 362 157.777 362 181.5C362 205.223 348.042 201.565 341.902 224.479C335.762 247.394 349.679 251.205 337.818 271.75C325.956 292.295 315.697 282.147 298.922 298.922Z" stroke="#624D7C"/>
</svg>
